<svg width="287" height="234" viewBox="0 0 287 234" fill="none" xmlns="http://www.w3.org/2000/svg">
<path d="M154.536 66.589C154.536 61.6479 150.501 57.6126 145.56 57.6126C140.619 57.6126 136.583 61.6479 136.583 66.589C136.583 71.5302 140.619 75.5654 145.56 75.5654C150.501 75.5654 154.536 71.5302 154.536 66.589Z" fill="#C4A0B1"/>
<path d="M209.795 104.471C199.83 104.471 189.536 106.777 178.995 111.306C171.336 114.6 163.842 118.965 156.595 124.236C153.877 126.706 151.489 128.683 149.76 130.083C150.254 130.083 150.748 130.083 151.324 130.083C163.76 130.083 194.642 128.024 214.077 108.753C215.312 107.6 216.465 106.283 217.536 104.965C214.9 104.636 212.347 104.471 209.795 104.471Z" fill="#C4A0B1"/>
<path d="M112.207 111.306C101.666 106.777 91.2896 104.471 81.4074 104.471C78.8545 104.471 76.2192 104.636 73.6663 104.965C74.8192 106.283 75.9721 107.6 77.1251 108.753C86.8426 118.389 99.4425 123.741 111.137 126.624C122.831 129.588 133.701 130.083 139.877 130.083C140.454 130.083 140.948 130.083 141.442 130.083C139.713 128.683 137.325 126.706 134.607 124.236C127.36 118.883 119.784 114.518 112.207 111.306Z" fill="#C4A0B1"/>
<path d="M107.925 57.2009C107.266 60.3303 106.937 63.542 106.937 66.589C106.937 90.1418 125.795 110.895 137.077 121.271C140.289 123.659 142.842 125.718 144.489 127.2C143.666 116.824 139.63 86.4359 119.207 66.1773C115.831 62.8832 112.042 59.8361 107.925 57.2009Z" fill="#C4A0B1"/>
<path d="M184.183 66.589C184.183 63.4596 183.854 60.3303 183.195 57.2009C179.077 59.9185 175.289 62.9655 171.913 66.2596C151.489 86.4359 147.454 116.906 146.63 127.283C148.277 125.8 150.83 123.741 154.042 121.353C165.407 110.895 184.183 90.1418 184.183 66.589Z" fill="#C4A0B1"/>
<path d="M145.56 133.624C148.277 136.506 154.454 142.682 163.266 149.024C174.136 156.847 190.936 166.07 209.795 166.07C228.653 166.07 245.453 156.765 256.324 149.024C268.018 140.624 275.182 132.388 275.429 132.059C276.088 131.318 276.006 130.165 275.347 129.424C275.1 129.177 269.253 123.494 259.535 117.153C250.888 111.553 237.63 104.389 222.312 101.753C227.665 94.0946 233.924 81.5771 236.641 62.5537C238.453 50.0362 237.794 40.5657 237.794 40.4833C237.794 39.9892 237.383 39.6598 236.888 39.6598C236.888 39.6598 235.077 39.6598 232.03 39.9069C228.983 40.1539 224.7 40.648 219.677 41.5539C210.947 43.2009 198.265 46.495 186.324 53.3303C184.018 44.5186 178.171 31.3422 163.924 16.2718C154.948 6.7189 146.96 1.0366 146.713 0.789544C145.642 -0.116331 145.642 -0.116331 144.489 0.789544C144.16 1.0366 136.172 6.7189 127.278 16.1894C113.031 31.2599 107.266 44.4362 104.878 53.2479C92.9367 46.4127 80.2545 43.1186 71.5251 41.4715C61.5605 39.6598 54.3959 39.5774 54.3135 39.5774C53.8194 39.5774 53.4077 39.9069 53.4077 40.401C53.4077 40.4833 52.7488 50.0362 54.5606 62.4714C57.1958 81.4947 63.537 94.0946 68.8075 101.753C53.49 104.471 40.1489 111.553 31.5843 117.153C21.8667 123.494 16.0197 129.177 15.7727 129.424C15.0315 130.165 15.0315 131.318 15.6903 132.059C16.0197 132.388 23.1844 140.706 34.796 149.024C45.6665 156.847 62.4664 166.07 81.3251 166.07C100.184 166.07 116.984 156.765 127.854 149.024C136.666 142.765 142.925 136.506 145.56 133.624ZM257.312 120.283C264.065 124.73 269.418 130.906 269.418 130.906C269.418 130.906 264.559 137.741 257.147 143.588C256.076 144.412 255.088 145.235 254.018 145.977C243.641 153.388 227.583 162.282 209.712 162.282C191.924 162.282 175.865 153.471 165.489 145.977C157.748 140.459 151.983 134.859 149.101 131.812C149.76 131.812 150.419 131.812 151.16 131.812C157.501 131.812 168.536 131.318 180.477 128.271C192.418 125.306 205.265 119.789 215.23 109.906C216.712 108.424 218.194 106.777 219.594 105.13H219.677C235.159 107.518 248.665 114.683 257.312 120.283ZM149.677 130.083C151.407 128.683 153.795 126.706 156.513 124.236C163.76 118.883 171.336 114.518 178.912 111.306C189.454 106.777 199.83 104.471 209.712 104.471C212.265 104.471 214.9 104.636 217.453 104.965C216.3 106.283 215.147 107.6 213.994 108.753C194.559 128.024 163.595 130.083 151.242 130.083C150.748 130.083 150.172 130.083 149.677 130.083ZM186.736 55.0597C197.936 48.5538 210.042 45.1774 219.512 43.3656C227.583 41.8833 235.159 42.2127 235.159 42.2127C235.159 42.2127 236.23 52.095 234.83 62.3067C233.265 73.2595 229.477 88.7417 220.336 101.424C216.794 100.93 213.253 100.6 209.795 100.6C199.336 100.6 188.465 102.989 177.43 107.683C174.301 109 171.254 110.565 168.124 112.212C171.089 108.753 174.136 104.8 176.854 100.6C184.265 88.9888 188.054 77.5418 188.054 66.5066C188.054 62.8008 187.642 58.9302 186.736 55.0597ZM184.183 66.589C184.183 90.1417 165.324 110.894 154.042 121.271C150.83 123.659 148.277 125.718 146.63 127.2C147.454 116.824 151.489 86.3535 171.913 66.1772C175.207 62.8831 178.995 59.8361 183.195 57.1185C183.854 60.3302 184.183 63.4596 184.183 66.589ZM129.995 18.907C136.748 11.7424 145.56 6.5542 145.56 6.5542C145.56 6.5542 154.042 11.413 160.63 18.4129C169.442 27.6364 179.242 40.648 182.783 55.3067C178.336 58.189 174.218 61.4008 170.677 64.9419C153.136 82.3183 147.372 107.024 145.56 120.694C143.666 107.024 137.983 82.3183 120.442 64.9419C116.901 61.4008 112.784 58.189 108.337 55.3067C110.313 46.9891 115.748 33.9775 129.995 18.907ZM107.925 57.2008C112.042 59.9184 115.831 62.9655 119.207 66.2596C139.63 86.4359 143.666 116.906 144.489 127.283C142.842 125.8 140.289 123.741 137.078 121.353C125.795 111.059 106.937 90.3064 106.937 66.6713C106.937 63.4596 107.266 60.3302 107.925 57.2008ZM141.442 130.083C140.948 130.083 140.454 130.083 139.877 130.083C133.701 130.083 122.831 129.588 111.137 126.624C99.4425 123.659 86.8427 118.389 77.1251 108.753C75.8898 107.6 74.7369 106.283 73.6663 104.965C76.3016 104.636 78.8545 104.471 81.4074 104.471C91.372 104.471 101.748 106.777 112.207 111.306C119.866 114.6 127.36 118.965 134.607 124.236C137.325 126.706 139.713 128.683 141.442 130.083ZM56.29 62.3067C54.8076 52.1773 55.9606 42.2127 55.9606 42.2127C55.9606 42.2127 63.537 41.801 71.6075 43.3656C81.078 45.1774 93.1838 48.5538 104.384 55.0597C103.478 58.9302 103.066 62.8008 103.066 66.589C103.066 77.6242 106.854 89.0711 114.266 100.683C116.984 104.883 119.948 108.836 122.995 112.294C119.948 110.647 116.819 109.083 113.689 107.765C102.654 103.071 91.7838 100.683 81.3251 100.683C77.8663 100.683 74.3251 100.93 70.784 101.506C61.6429 88.6594 57.8547 73.1772 56.29 62.3067ZM125.631 145.894C115.254 153.306 99.1955 162.2 81.3251 162.2C63.537 162.2 47.4783 153.388 37.1019 145.894C35.949 145.071 34.8784 144.247 33.8078 143.506C26.8902 138.235 21.5373 130.824 21.5373 130.824C21.5373 130.824 26.7255 124.812 33.3137 120.53C42.8666 114.271 56.2076 107.353 71.2781 105.13H71.3604C72.7604 106.859 74.1604 108.424 75.7251 109.906C95.6543 129.671 127.195 131.73 139.795 131.73C140.536 131.73 141.277 131.73 141.936 131.73C139.054 134.859 133.289 140.377 125.631 145.894Z" fill="#743251"/>
<path d="M145.56 79.1889C152.477 79.1889 158.16 73.5066 158.16 66.589C158.16 59.6714 152.477 53.9891 145.56 53.9891C138.642 53.9891 132.96 59.6714 132.96 66.589C132.96 73.5066 138.642 79.1889 145.56 79.1889ZM145.56 57.6126C150.501 57.6126 154.536 61.6478 154.536 66.589C154.536 71.5301 150.501 75.5654 145.56 75.5654C140.619 75.5654 136.583 71.5301 136.583 66.589C136.583 61.6478 140.619 57.6126 145.56 57.6126Z" fill="#743251"/>
<path d="M282.429 201.811C279.464 198.682 274.523 196.953 268.018 196.953C264.641 196.953 261.594 197.282 258.876 197.776V213.999H254.182V216.058H258.876V233.105C261.429 233.352 264.065 233.435 266.782 233.435C273.617 233.435 279.053 231.458 282.182 227.999C285.394 224.458 286.876 219.682 286.876 214.494C286.876 208.729 285.312 204.776 282.429 201.811ZM267.194 231.211C264.888 231.211 262.829 231.129 261.429 230.964V215.976H272.465V213.917H261.429V199.67C262.994 199.341 265.135 199.094 267.853 199.094C279.3 199.094 284.323 205.27 284.241 214.329C284.241 224.788 278.641 231.211 267.194 231.211Z" fill="#743251"/>
<path d="M248.006 197.364H245.453V233.023H248.006V197.364Z" fill="#743251"/>
<path d="M229.477 215.811V215.729C233.594 214.329 236.477 211.199 236.477 206.423C236.477 203.952 235.488 201.564 234.006 200.082C232.03 198.105 229.065 197.117 224.371 197.117C221.9 197.117 218.853 197.364 216.63 197.858V233.023H219.183V216.717H224.7C229.394 216.964 231.618 219.27 232.771 224.376C233.759 228.905 234.5 231.952 235.077 233.023H237.63C236.888 231.623 236.23 228.988 234.994 223.388C234.171 219.352 232.359 216.717 229.477 215.811ZM219.183 214.576V199.588C220.089 199.341 221.9 199.094 224.289 199.094C229.888 199.094 233.924 201.317 233.924 206.752C233.924 211.446 230.3 214.494 224.865 214.494H219.183V214.576Z" fill="#743251"/>
<path d="M185.089 199.423H196.7V232.94H199.253V199.423H210.865V197.364H185.089V199.423Z" fill="#743251"/>
<path d="M164.583 215.235H178.83V213.176H164.583V199.423H179.654V197.364H162.03V232.94H180.477V230.882H164.583V215.235Z" fill="#743251"/>
<path d="M144.16 213.341C139.054 211.364 136.748 209.305 136.748 205.435C136.748 202.635 138.725 198.929 144.489 198.929C147.536 198.929 149.842 199.917 150.748 200.658L151.736 198.517C150.501 197.694 147.948 196.87 144.654 196.87C138.56 196.87 134.278 200.658 134.278 205.929C134.278 210.705 137.736 213.67 143.419 215.729C148.607 217.705 150.666 220.093 150.666 224.046C150.666 228.411 147.372 231.458 142.019 231.458C139.054 231.458 136.254 230.47 134.278 229.152L133.289 231.211C135.183 232.611 138.725 233.599 141.772 233.599C149.348 233.599 153.054 228.988 153.054 223.799C153.136 218.446 150.007 215.729 144.16 213.341Z" fill="#743251"/>
<path d="M110.066 197.364L97.9602 233.023H102.737L106.442 221.823H119.042L122.831 233.023H127.772L115.584 197.364H110.066ZM107.348 218.199L110.807 207.905C111.466 205.764 112.042 203.541 112.537 201.482H112.701C113.195 203.541 113.772 205.682 114.513 207.988L118.054 218.282H107.348V218.199Z" fill="#743251"/>
<path d="M79.8427 217.952H87.0073V228.576C85.9367 229.07 83.8779 229.564 80.8309 229.564C72.5133 229.564 67.0781 224.211 67.0781 215.152C67.0781 206.258 72.7604 200.823 81.4074 200.823C85.0309 200.823 87.4191 201.482 89.3132 202.388L90.4661 198.6C88.9014 197.858 85.6897 196.953 81.4897 196.953C69.5486 196.953 62.2193 204.694 62.2193 215.317C62.2193 220.835 64.1134 225.611 67.1604 228.576C70.6192 231.87 75.0662 233.27 80.5015 233.27C85.2779 233.27 89.4779 232.117 91.5367 231.293V214.164H79.8427V217.952Z" fill="#743251"/>
<path d="M40.2313 196.788C30.6785 196.788 23.7609 204.2 23.7609 215.482C23.7609 226.27 30.349 233.599 39.8195 233.599H39.9019C48.9606 233.599 56.3723 227.011 56.3723 214.823C56.29 204.2 50.0312 196.788 40.2313 196.788ZM39.9843 229.811C32.6549 229.811 28.5373 222.893 28.5373 215.399C28.5373 207.658 32.3255 200.576 39.9843 200.576C47.643 200.576 51.3489 207.988 51.3489 215.07C51.4312 223.058 47.3136 229.811 39.9843 229.811Z" fill="#743251"/>
<path d="M47.8077 189.047H42.2077L37.2666 195.305H41.0548L47.8077 189.047Z" fill="#743251"/>
<path d="M11.408 220.835C11.408 227.835 9.01979 229.646 4.90217 229.646C3.33748 229.646 1.93749 229.317 0.949268 228.988L0.372803 232.693C1.44338 233.187 3.58454 233.517 5.31394 233.517C11.408 233.517 16.1021 230.635 16.1021 221.164V197.282H11.408V220.835Z" fill="#743251"/>
</svg>
