<svg width="288" height="235" viewBox="0 0 288 235" fill="none" xmlns="http://www.w3.org/2000/svg">
<path d="M145.904 79.6806C152.822 79.6806 158.504 73.9983 158.504 67.0807C158.504 60.1631 152.822 54.4808 145.904 54.4808C138.987 54.4808 133.304 60.1631 133.304 67.0807C133.304 73.9983 138.987 79.6806 145.904 79.6806ZM145.904 58.1043C150.845 58.1043 154.88 62.1396 154.88 67.0807C154.88 72.0218 150.845 76.0571 145.904 76.0571C140.963 76.0571 136.928 72.0218 136.928 67.0807C136.928 62.1396 140.963 58.1043 145.904 58.1043Z" fill="white"/>
<path d="M145.904 134.115C148.622 136.998 154.798 143.174 163.61 149.515C174.48 157.339 191.28 166.562 210.139 166.562C228.997 166.562 245.797 157.256 256.668 149.515C268.362 141.115 275.526 132.88 275.773 132.551C276.432 131.809 276.35 130.656 275.691 129.915C275.444 129.668 269.597 123.986 259.879 117.645C251.233 112.045 237.974 104.88 222.656 102.245C228.009 94.5861 234.268 82.0686 236.986 63.0452C238.797 50.5277 238.139 41.0572 238.139 40.9749C238.139 40.4807 237.727 40.1513 237.233 40.1513C237.233 40.1513 235.421 40.1513 232.374 40.3984C229.327 40.6454 225.045 41.1396 220.021 42.0454C211.292 43.6925 198.609 46.9866 186.668 53.8218C184.363 45.0101 178.516 31.8338 164.269 16.7633C155.292 7.21045 147.304 1.52815 147.057 1.28109C145.986 0.375216 145.986 0.375216 144.833 1.28109C144.504 1.52815 136.516 7.21045 127.622 16.681C113.375 31.7514 107.61 44.9278 105.222 53.7394C93.281 46.9042 80.5988 43.6101 71.8694 41.9631C61.9048 40.1513 54.7402 40.069 54.6578 40.069C54.1637 40.069 53.7519 40.3984 53.7519 40.8925C53.7519 40.9749 53.0931 50.5277 54.9049 62.9629C57.5401 81.9863 63.8813 94.5861 69.1518 102.245C53.8343 104.963 40.4932 112.045 31.9286 117.645C22.211 123.986 16.364 129.668 16.117 129.915C15.3758 130.656 15.3758 131.809 16.0346 132.551C16.364 132.88 23.5287 141.197 35.1403 149.515C46.0108 157.339 62.8107 166.562 81.6693 166.562C100.528 166.562 117.328 157.256 128.198 149.515C137.01 143.256 143.269 136.998 145.904 134.115ZM257.656 120.774C264.409 125.221 269.762 131.398 269.762 131.398C269.762 131.398 264.903 138.233 257.491 144.08C256.421 144.903 255.432 145.727 254.362 146.468C243.986 153.88 227.927 162.774 210.056 162.774C192.268 162.774 176.21 153.962 165.833 146.468C158.092 140.95 152.328 135.35 149.445 132.303C150.104 132.303 150.763 132.303 151.504 132.303C157.845 132.303 168.88 131.809 180.821 128.762C192.762 125.798 205.609 120.28 215.574 110.398C217.056 108.915 218.539 107.268 219.939 105.621H220.021C235.503 108.01 249.009 115.174 257.656 120.774ZM150.022 130.574C151.751 129.174 154.139 127.198 156.857 124.727C164.104 119.374 171.68 115.009 179.257 111.798C189.798 107.268 200.174 104.963 210.056 104.963C212.609 104.963 215.245 105.127 217.798 105.457C216.645 106.774 215.492 108.092 214.339 109.245C194.904 128.515 163.939 130.574 151.586 130.574C151.092 130.574 150.516 130.574 150.022 130.574ZM187.08 55.5512C198.28 49.0454 210.386 45.6689 219.856 43.8572C227.927 42.3748 235.503 42.7042 235.503 42.7042C235.503 42.7042 236.574 52.5865 235.174 62.7982C233.609 73.751 229.821 89.2332 220.68 101.915C217.139 101.421 213.598 101.092 210.139 101.092C199.68 101.092 188.81 103.48 177.774 108.174C174.645 109.492 171.598 111.057 168.469 112.704C171.433 109.245 174.48 105.292 177.198 101.092C184.61 89.4803 188.398 78.0333 188.398 66.9981C188.398 63.2923 187.986 59.4218 187.08 55.5512ZM184.527 67.0805C184.527 90.6332 165.669 111.386 154.386 121.762C151.175 124.151 148.622 126.209 146.975 127.692C147.798 117.315 151.833 86.845 172.257 66.6687C175.551 63.3747 179.339 60.3276 183.539 57.61C184.198 60.8217 184.527 63.9511 184.527 67.0805ZM130.339 19.3986C137.092 12.2339 145.904 7.04574 145.904 7.04574C145.904 7.04574 154.386 11.9045 160.975 18.9045C169.786 28.1279 179.586 41.1396 183.127 55.7982C178.68 58.6806 174.563 61.8923 171.021 65.4335C153.48 82.8098 147.716 107.515 145.904 121.186C144.01 107.515 138.328 82.8098 120.787 65.4335C117.245 61.8923 113.128 58.6806 108.681 55.7982C110.657 47.4807 116.093 34.469 130.339 19.3986ZM108.269 57.6924C112.387 60.41 116.175 63.457 119.551 66.7511C139.975 86.9274 144.01 117.398 144.833 127.774C143.186 126.292 140.634 124.233 137.422 121.845C126.14 111.551 107.281 90.7979 107.281 67.1629C107.281 63.9511 107.61 60.8217 108.269 57.6924ZM141.786 130.574C141.292 130.574 140.798 130.574 140.222 130.574C134.045 130.574 123.175 130.08 111.481 127.115C99.7868 124.151 87.1869 118.88 77.4694 109.245C76.2341 108.092 75.0812 106.774 74.0106 105.457C76.6458 105.127 79.1988 104.963 81.7517 104.963C91.7163 104.963 102.093 107.268 112.551 111.798C120.21 115.092 127.704 119.457 134.951 124.727C137.669 127.198 140.057 129.174 141.786 130.574ZM56.6343 62.7982C55.1519 52.6689 56.3049 42.7042 56.3049 42.7042C56.3049 42.7042 63.8813 42.2925 71.9518 43.8572C81.4223 45.6689 93.528 49.0454 104.728 55.5512C103.822 59.4218 103.41 63.2923 103.41 67.0805C103.41 78.1157 107.199 89.5627 114.61 101.174C117.328 105.374 120.293 109.327 123.34 112.786C120.293 111.139 117.163 109.574 114.034 108.257C102.999 103.563 92.1281 101.174 81.6693 101.174C78.2105 101.174 74.6694 101.421 71.1283 101.998C61.9872 89.1509 58.199 73.6687 56.6343 62.7982ZM125.975 146.386C115.598 153.797 99.5398 162.691 81.6693 162.691C63.8813 162.691 47.8226 153.88 37.4462 146.386C36.2933 145.562 35.2227 144.739 34.1521 143.997C27.2345 138.727 21.8816 131.315 21.8816 131.315C21.8816 131.315 27.0698 125.304 33.658 121.021C43.2109 114.762 56.5519 107.845 71.6224 105.621H71.7047C73.1047 107.351 74.5047 108.915 76.0694 110.398C95.9986 130.162 127.54 132.221 140.139 132.221C140.881 132.221 141.622 132.221 142.281 132.221C139.398 135.35 133.634 140.868 125.975 146.386Z" fill="white"/>
<path d="M282.773 202.303C279.809 199.174 274.868 197.444 268.362 197.444C264.985 197.444 261.938 197.774 259.221 198.268V214.491H254.527V216.55H259.221V233.597C261.774 233.844 264.409 233.926 267.127 233.926C273.962 233.926 279.397 231.95 282.526 228.491C285.738 224.95 287.22 220.173 287.22 214.985C287.22 209.221 285.656 205.268 282.773 202.303ZM267.538 231.703C265.232 231.703 263.174 231.62 261.774 231.456V216.468H272.809V214.409H261.774V200.162C263.338 199.832 265.48 199.585 268.197 199.585C279.644 199.585 284.668 205.762 284.585 214.821C284.585 225.279 278.985 231.703 267.538 231.703Z" fill="white"/>
<path d="M248.35 197.856H245.797V233.514H248.35V197.856Z" fill="white"/>
<path d="M229.821 216.303V216.22C233.939 214.82 236.821 211.691 236.821 206.915C236.821 204.444 235.833 202.056 234.35 200.574C232.374 198.597 229.409 197.609 224.715 197.609C222.245 197.609 219.198 197.856 216.974 198.35V233.514H219.527V217.209H225.045C229.739 217.456 231.962 219.762 233.115 224.867C234.103 229.397 234.845 232.444 235.421 233.514H237.974C237.233 232.114 236.574 229.479 235.339 223.879C234.515 219.844 232.703 217.209 229.821 216.303ZM219.527 215.068V200.079C220.433 199.832 222.245 199.585 224.633 199.585C230.233 199.585 234.268 201.809 234.268 207.244C234.268 211.938 230.645 214.985 225.209 214.985H219.527V215.068Z" fill="white"/>
<path d="M185.433 199.915H197.045V233.432H199.598V199.915H211.209V197.856H185.433V199.915Z" fill="white"/>
<path d="M164.927 215.726H179.174V213.667H164.927V199.915H179.998V197.856H162.375V233.432H180.821V231.373H164.927V215.726Z" fill="white"/>
<path d="M144.504 213.832C139.398 211.856 137.092 209.797 137.092 205.926C137.092 203.126 139.069 199.421 144.834 199.421C147.881 199.421 150.186 200.409 151.092 201.15L152.081 199.009C150.845 198.185 148.292 197.362 144.998 197.362C138.904 197.362 134.622 201.15 134.622 206.421C134.622 211.197 138.081 214.162 143.763 216.22C148.951 218.197 151.01 220.585 151.01 224.538C151.01 228.903 147.716 231.95 142.363 231.95C139.398 231.95 136.598 230.962 134.622 229.644L133.634 231.703C135.528 233.103 139.069 234.091 142.116 234.091C149.692 234.091 153.398 229.479 153.398 224.291C153.481 218.938 150.351 216.22 144.504 213.832Z" fill="white"/>
<path d="M110.41 197.856L98.3046 233.514H103.081L106.787 222.314H119.387L123.175 233.514H128.116L115.928 197.856H110.41V197.856ZM107.693 218.691L111.152 208.397C111.81 206.256 112.387 204.032 112.881 201.973H113.046C113.54 204.032 114.116 206.173 114.857 208.479L118.399 218.773H107.693V218.691Z" fill="white"/>
<path d="M80.1871 218.444H87.3517V229.068C86.2812 229.562 84.2223 230.056 81.1753 230.056C72.8577 230.056 67.4225 224.703 67.4225 215.644C67.4225 206.75 73.1048 201.315 81.7518 201.315C85.3753 201.315 87.7635 201.974 89.6576 202.88L90.8105 199.091C89.2458 198.35 86.0341 197.444 81.8341 197.444C69.8931 197.444 62.5637 205.185 62.5637 215.809C62.5637 221.326 64.4578 226.103 67.5049 229.068C70.9636 232.362 75.4107 233.762 80.8459 233.762C85.6223 233.762 89.8223 232.609 91.8811 231.785V214.656H80.1871V218.444Z" fill="white"/>
<path d="M40.5756 197.279C31.0227 197.279 24.1052 204.691 24.1052 215.973C24.1052 226.761 30.6933 234.091 40.1638 234.091H40.2462C49.3049 234.091 56.7166 227.503 56.7166 215.314C56.6343 204.691 50.3755 197.279 40.5756 197.279ZM40.3285 230.303C32.9992 230.303 28.8816 223.385 28.8816 215.891C28.8816 208.15 32.6698 201.068 40.3285 201.068C47.9873 201.068 51.6931 208.479 51.6931 215.562C51.7755 223.55 47.6579 230.303 40.3285 230.303Z" fill="white"/>
<path d="M48.152 189.538H42.5521L37.611 195.797H41.3992L48.152 189.538Z" fill="white"/>
<path d="M11.7524 221.326C11.7524 228.326 9.36418 230.138 5.24657 230.138C3.68187 230.138 2.28189 229.809 1.29366 229.479L0.717194 233.185C1.78777 233.679 3.92893 234.009 5.65833 234.009C11.7524 234.009 16.4465 231.126 16.4465 221.656V197.774H11.7524V221.326Z" fill="white"/>
</svg>
